<?xml version="1.0" standalone="no"?>
<!DOCTYPE svg PUBLIC "-//W3C//DTD SVG 20010904//EN"
 "http://www.w3.org/TR/2001/REC-SVG-20010904/DTD/svg10.dtd">
<svg version="1.0" xmlns="http://www.w3.org/2000/svg"
 width="260.000000pt" height="260.000000pt" viewBox="0 0 260.000000 260.000000"
 preserveAspectRatio="xMidYMid meet">
<metadata>
Created by potrace 1.14, written by Peter Selinger 2001-2017
</metadata>
<g transform="translate(0.000000,260.000000) scale(0.100000,-0.100000)"
fill="#000000" stroke="none">
<path d="M764 2306 l-34 -34 0 -316 0 -316 -37 0 c-21 0 -62 -7 -91 -14 -272
-73 -368 -411 -174 -611 68 -70 137 -103 237 -114 l60 -6 5 -280 c4 -201 9
-286 18 -302 30 -53 33 -53 558 -53 l487 0 39 40 38 41 0 93 0 93 78 5 c178
11 307 136 320 309 14 197 -140 359 -342 359 l-57 0 3 118 3 117 44 6 c79 10
81 18 81 264 0 246 -2 254 -81 264 l-44 6 -5 145 c-3 91 -10 153 -18 167 -30
53 -33 53 -563 53 l-491 0 -34 -34z m651 -36 c3 -5 3 -21 -1 -35 l-6 -26 -112
3 c-98 3 -111 5 -114 21 -8 43 2 47 117 47 60 0 112 -4 116 -10z m513 -372
c17 -17 17 -369 0 -386 -17 -17 -369 -17 -386 0 -8 8 -12 66 -12 193 0 127 4
185 12 193 8 8 66 12 193 12 127 0 185 -4 193 -12z m-1140 -345 c98 -31 179
-123 201 -230 22 -108 -32 -240 -122 -300 -175 -117 -404 -37 -462 162 -19 66
-19 106 -1 167 51 166 217 253 384 201z m1269 -447 c39 -21 99 -80 117 -115
28 -53 36 -124 22 -184 -15 -63 -32 -94 -78 -137 -48 -46 -87 -62 -163 -67
-59 -4 -80 -1 -123 17 -97 42 -162 140 -162 245 0 103 60 197 155 242 43 21
61 23 125 20 43 -3 89 -12 107 -21z"/>
<path d="M1612 1828 c-8 -8 -12 -50 -12 -124 0 -154 0 -154 146 -81 100 50
114 60 114 82 0 22 -14 32 -110 80 -60 30 -113 55 -118 55 -4 0 -13 -5 -20
-12z"/>
<path d="M500 1455 c-19 -22 -1 -49 34 -53 l26 -3 0 -123 c0 -81 4 -126 12
-134 17 -17 292 -17 306 1 14 17 32 111 35 187 l2 65 -141 3 -140 3 -10 32
c-8 30 -12 32 -60 35 -37 2 -54 -1 -64 -13z"/>
<path d="M601 1087 c-25 -31 20 -71 48 -42 12 12 13 19 5 33 -15 22 -38 26
-53 9z"/>
<path d="M807 1094 c-12 -12 -8 -41 9 -54 22 -19 54 12 38 38 -12 19 -36 27
-47 16z"/>
<path d="M1913 1053 c-10 -10 -35 -26 -55 -37 -67 -34 -74 -103 -17 -157 25
-23 40 -29 92 -31 50 -2 62 -6 65 -21 7 -36 -16 -47 -98 -47 -57 0 -81 -4 -90
-15 -19 -23 5 -45 49 -45 24 0 42 -7 54 -20 9 -11 21 -20 27 -20 5 0 15 9 22
20 7 11 21 20 31 20 11 0 32 14 48 31 42 45 40 91 -6 135 -31 29 -43 33 -98
36 -51 2 -62 6 -65 22 -6 31 16 41 106 46 85 5 87 6 87 30 0 22 -5 25 -45 28
-30 2 -48 10 -58 23 -16 24 -26 24 -49 2z"/>
</g>
</svg>
